<svg width="14" height="8" viewBox="0 0 14 8" fill="none" xmlns="http://www.w3.org/2000/svg">
<path fill-rule="evenodd" clip-rule="evenodd" d="M9.05078 0.167842C9.10238 0.114638 9.16368 0.0724268 9.23118 0.0436257C9.29867 0.0148246 9.37102 0 9.44409 0C9.51716 0 9.58951 0.0148246 9.657 0.0436257C9.72449 0.0724268 9.78579 0.114638 9.8374 0.167842L13.1705 3.59567C13.2223 3.64874 13.2633 3.71178 13.2913 3.78119C13.3193 3.8506 13.3337 3.925 13.3337 4.00015C13.3337 4.0753 13.3193 4.1497 13.2913 4.21911C13.2633 4.28852 13.2223 4.35156 13.1705 4.40463L9.8374 7.83246C9.73309 7.93973 9.59161 8 9.44409 8C9.29657 8 9.15509 7.93973 9.05078 7.83246C8.94647 7.72518 8.88786 7.57969 8.88786 7.42797C8.88786 7.27626 8.94647 7.13077 9.05078 7.02349L11.9917 4.00015L9.05078 0.976809C8.99904 0.923739 8.958 0.860695 8.92999 0.791287C8.90199 0.72188 8.88757 0.647471 8.88757 0.572325C8.88757 0.497179 8.90199 0.422771 8.92999 0.353363C8.958 0.283955 8.99904 0.220911 9.05078 0.167842Z" fill="white" fill-opacity="0.83"/>
<path fill-rule="evenodd" clip-rule="evenodd" d="M0 4.00002C0 3.8485 0.0585282 3.70318 0.162709 3.59604C0.266889 3.4889 0.408189 3.42871 0.555522 3.42871H12.2215C12.3688 3.42871 12.5101 3.4889 12.6143 3.59604C12.7185 3.70318 12.777 3.8485 12.777 4.00002C12.777 4.15153 12.7185 4.29685 12.6143 4.40399C12.5101 4.51113 12.3688 4.57132 12.2215 4.57132H0.555522C0.408189 4.57132 0.266889 4.51113 0.162709 4.40399C0.0585282 4.29685 0 4.15153 0 4.00002Z" fill="white" fill-opacity="0.83"/>
</svg>
