<svg width="15" height="17" viewBox="0 0 15 17" fill="none" xmlns="http://www.w3.org/2000/svg">
<path d="M12.1966 1.18801C12.1966 1.08544 12.1764 0.983886 12.137 0.889188C12.0976 0.79449 12.0398 0.70852 11.9671 0.636225C11.8943 0.563931 11.808 0.50674 11.713 0.467944C11.6181 0.429149 11.5164 0.409515 11.4138 0.410172H1.51135C1.40879 0.409515 1.30711 0.429149 1.21216 0.467944C1.11721 0.50674 1.03087 0.563931 0.958114 0.636225C0.885357 0.70852 0.827615 0.79449 0.788214 0.889188C0.748812 0.983886 0.728529 1.08544 0.728531 1.18801V13.5935C0.728529 13.6961 0.748812 13.7976 0.788214 13.8923C0.827615 13.987 0.885357 14.073 0.958114 14.1453C1.03087 14.2176 1.11721 14.2748 1.21216 14.3136C1.30711 14.3524 1.40879 14.372 1.51135 14.3714H1.77063V1.4423H12.1966V1.18801Z" fill="white" fill-opacity="0.85"/>
<path d="M13.4432 2.40479H3.4709C3.05783 2.40479 2.72298 2.73964 2.72298 3.15271V15.618C2.72298 16.0311 3.05783 16.366 3.4709 16.366H13.4432C13.8562 16.366 14.1911 16.0311 14.1911 15.618V3.15271C14.1911 2.73964 13.8562 2.40479 13.4432 2.40479Z" fill="white" fill-opacity="0.85"/>
</svg>
