<svg width="17" height="15" viewBox="0 0 17 15" fill="none" xmlns="http://www.w3.org/2000/svg">
<path d="M16.1084 2.11675C15.412 0.687671 13.4633 -0.481574 11.0728 0.199186C10.4109 0.387794 9.79379 0.707677 9.25812 1.13978C8.72245 1.57189 8.27922 2.10738 7.95483 2.71436C7.42888 3.57279 7.03803 4.50697 6.79598 5.48418L9.53981 6.70019L7.14935 8.97112L8.96298 11.1017L9.75287 10.4262L8.59402 9.05947L11.4002 6.39359L8.09514 4.90215C8.36708 4.14161 8.74684 3.42407 9.22282 2.77153C9.73692 2.02426 10.4902 1.4744 11.3586 1.21253C13.0943 0.750031 14.6533 1.52433 15.173 2.58964C15.9785 4.24218 15.6147 6.08179 14.0609 8.20722C12.408 10.3296 10.4745 12.2177 8.3134 13.8196C6.15124 12.2129 4.21769 10.3195 2.56591 8.19163C1.00692 6.061 0.64835 4.22139 1.45383 2.57405C1.73372 2.09266 2.13943 1.69657 2.62741 1.42832C3.11539 1.16007 3.66721 1.02978 4.22364 1.05144C4.57539 1.05331 4.92518 1.10403 5.26297 1.20214C5.92845 1.39093 6.53363 1.74902 7.01944 2.24147L7.09739 2.08557C7.25049 1.82766 7.42428 1.58261 7.61705 1.35284C7.03569 0.811377 6.33389 0.415945 5.56957 0.199186C3.22069 -0.471181 1.21478 0.687671 0.518434 2.11675C-0.458536 4.11746 -0.0531973 6.36761 1.72406 8.80483C3.11676 10.712 5.10707 12.6452 7.99641 14.8901C8.08772 14.9613 8.2002 15 8.316 15C8.4318 15 8.54428 14.9613 8.63559 14.8901C11.5197 12.6504 13.5152 10.7328 14.9079 8.80483C16.68 6.36761 17.0853 4.11746 16.1084 2.11675V2.11675Z" fill="white" fill-opacity="0.71"/>
</svg>
