<svg width="17" height="21" viewBox="0 0 17 21" fill="none" xmlns="http://www.w3.org/2000/svg">
<path d="M4.37349 13.5288C4.18489 13.5288 4.05779 13.5468 3.99219 13.5648V14.7428C4.07009 14.7608 4.16746 14.7658 4.30174 14.7658C4.79271 14.7658 5.09509 14.5238 5.09509 14.1148C5.09509 13.7488 4.83474 13.5288 4.37349 13.5288ZM7.94766 13.5408C7.74266 13.5408 7.60941 13.5588 7.53049 13.5768V16.1868C7.60941 16.2048 7.73651 16.2048 7.85131 16.2048C8.68874 16.2108 9.23404 15.7608 9.23404 14.8088C9.24019 13.9788 8.74306 13.5408 7.94766 13.5408Z" fill="white" fill-opacity="0.83"/>
<path d="M10.25 0.848633H2.05C1.50631 0.848633 0.984881 1.05935 0.600431 1.43442C0.215981 1.80949 0 2.3182 0 2.84863V18.8486C0 19.3791 0.215981 19.8878 0.600431 20.2628C0.984881 20.6379 1.50631 20.8486 2.05 20.8486H14.35C14.8937 20.8486 15.4151 20.6379 15.7996 20.2628C16.184 19.8878 16.4 19.3791 16.4 18.8486V6.84863L10.25 0.848633ZM5.63545 15.0386C5.31873 15.3286 4.85132 15.4586 4.30705 15.4586C4.20152 15.4598 4.09603 15.4537 3.99135 15.4406V16.8666H3.075V12.9306C3.48854 12.8704 3.9064 12.843 4.32447 12.8486C4.8954 12.8486 5.3013 12.9546 5.57498 13.1676C5.83533 13.3696 6.01162 13.7006 6.01162 14.0906C6.0106 14.4826 5.87735 14.8136 5.63545 15.0386ZM9.53763 16.3936C9.10713 16.7426 8.45215 16.9086 7.65163 16.9086C7.17193 16.9086 6.83265 16.8786 6.60203 16.8486V12.9316C7.01572 12.8727 7.43344 12.845 7.8515 12.8486C8.62742 12.8486 9.13173 12.9846 9.52532 13.2746C9.9507 13.5826 10.2172 14.0736 10.2172 14.7786C10.2172 15.5416 9.93122 16.0686 9.53763 16.3936ZM13.325 13.6186H11.7547V14.5296H13.2225V15.2636H11.7547V16.8676H10.826V12.8786H13.325V13.6186ZM10.25 7.84863H9.225V2.84863L14.35 7.84863H10.25Z" fill="white" fill-opacity="0.83"/>
</svg>
