<svg width="17" height="15" viewBox="0 0 17 15" fill="none" xmlns="http://www.w3.org/2000/svg">
<path d="M15.2826 1.30959C14.8672 0.894199 14.374 0.564736 13.8312 0.34003C13.2884 0.115324 12.7067 -0.000220279 12.1192 3.15269e-07C11.5318 0.00022091 10.9501 0.116202 10.4075 0.341316C9.86492 0.56643 9.37199 0.896263 8.95691 1.31197L8.41508 1.86039L7.87777 1.31315L7.87428 1.30966C7.45908 0.894464 6.96618 0.565112 6.4237 0.340409C5.88122 0.115706 5.2998 5.32168e-05 4.71262 5.32168e-05C4.12545 5.32168e-05 3.54402 0.115706 3.00154 0.340409C2.45907 0.565112 1.96616 0.894464 1.55097 1.30966L1.30959 1.55104C0.471073 2.38956 0 3.52683 0 4.71268C0 5.89852 0.471073 7.03579 1.30959 7.87431L7.68016 14.2448L8.39958 14.9986L8.41673 14.9814L8.43535 15L9.10939 14.2888L15.5239 7.87421C16.3612 7.03502 16.8314 5.898 16.8314 4.71257C16.8314 3.52714 16.3612 2.39012 15.5239 1.55093L15.2826 1.30959ZM14.7334 7.08381L8.41673 13.4006L2.09995 7.08381C1.47107 6.45492 1.11776 5.60197 1.11776 4.71259C1.11776 3.82321 1.47107 2.97025 2.09995 2.34136L2.34136 2.09999C2.96994 1.47141 3.82238 1.11813 4.71133 1.1178C5.60027 1.11746 6.45298 1.4701 7.08203 2.09821L8.41267 3.4531L9.74965 2.09999C10.061 1.78859 10.4307 1.54158 10.8376 1.37305C11.2444 1.20452 11.6805 1.11778 12.1209 1.11778C12.5613 1.11778 12.9973 1.20452 13.4042 1.37305C13.8111 1.54158 14.1807 1.78859 14.4921 2.09999L14.7335 2.34133C15.3614 2.97074 15.7141 3.82352 15.7141 4.7126C15.714 5.60168 15.3613 6.45444 14.7334 7.08381Z" fill="#49C607"/>
</svg>
