<svg width="16" height="17" viewBox="0 0 16 17" fill="none" xmlns="http://www.w3.org/2000/svg">
<path d="M0.274216 8.388C0.274216 9.85415 1.46735 11.0473 2.9335 11.0473C3.63732 11.0473 4.27377 10.7681 4.74978 10.3204L10.0604 13.3555C10.0444 13.4708 10.0249 13.586 10.0249 13.7066C10.0249 15.1727 11.218 16.3658 12.6842 16.3658C14.1503 16.3658 15.3435 15.1727 15.3435 13.7066C15.3435 12.2404 14.1503 11.0473 12.6842 11.0473C11.9804 11.0473 11.3439 11.3265 10.8679 11.7741L5.55732 8.73991C5.57327 8.62379 5.59278 8.50855 5.59278 8.388C5.59278 8.26744 5.57327 8.15221 5.55732 8.03608L10.8679 5.00185C11.3439 5.44949 11.9804 5.72872 12.6842 5.72872C14.1503 5.72872 15.3435 4.53559 15.3435 3.06944C15.3435 1.60329 14.1503 0.410156 12.6842 0.410156C11.218 0.410156 10.0249 1.60329 10.0249 3.06944C10.0249 3.18999 10.0444 3.30523 10.0604 3.42135L4.74978 6.45559C4.25959 5.98993 3.6096 5.7298 2.9335 5.72872C1.46735 5.72872 0.274216 6.92185 0.274216 8.388Z" fill="white" fill-opacity="0.85"/>
</svg>
